<svg xmlns="http://www.w3.org/2000/svg" xmlns:xlink="http://www.w3.org/1999/xlink" width="500" zoomAndPan="magnify" viewBox="0 0 375 374.999991" height="500" preserveAspectRatio="xMidYMid meet" version="1.0"><defs><g/></defs><g fill="#ffffff" fill-opacity="1"><g transform="translate(45.179694, 215.949977)"><g><path d="M 15.578125 0 L 10.671875 -32.867188 L 10.386719 -35.070312 L 9.960938 -35.070312 L 9.960938 0 L 2.84375 0 L 2.84375 -52.285156 L 12.234375 -52.285156 L 16.789062 -28.382812 L 17.144531 -25.609375 L 17.285156 -25.609375 L 17.640625 -28.382812 L 22.195312 -52.285156 L 31.585938 -52.285156 L 31.585938 0 L 24.472656 0 L 24.472656 -35.070312 L 24.042969 -35.070312 L 23.761719 -32.867188 L 18.851562 0 Z M 15.578125 0 "/></g></g></g><g fill="#ffffff" fill-opacity="1"><g transform="translate(122.293664, 215.949977)"><g><path d="M 2.84375 -52.285156 L 10.527344 -52.285156 L 10.527344 0 L 2.84375 0 Z M 2.84375 -52.285156 "/></g></g></g><g fill="#ffffff" fill-opacity="1"><g transform="translate(178.352293, 215.949977)"><g><path d="M 16.503906 -22.765625 L 10.527344 -22.765625 L 10.527344 0 L 2.84375 0 L 2.84375 -52.285156 L 10.527344 -52.285156 L 10.527344 -30.660156 L 16.503906 -30.660156 L 16.503906 -52.285156 L 24.1875 -52.285156 L 24.1875 0 L 16.503906 0 Z M 16.503906 -22.765625 "/></g></g></g><g fill="#ffffff" fill-opacity="1"><g transform="translate(248.068437, 215.949977)"><g><path d="M 2.84375 -52.285156 L 10.527344 -52.285156 L 10.527344 0 L 2.84375 0 Z M 2.84375 -52.285156 "/></g></g></g><g fill="#ffffff" fill-opacity="1"><g transform="translate(304.127065, 215.949977)"><g><path d="M 16.574219 0 L 12.589844 -22.050781 L 10.527344 -22.050781 L 10.527344 0 L 2.84375 0 L 2.84375 -52.285156 L 10.527344 -52.285156 C 19.707031 -52.285156 23.617188 -47.09375 23.617188 -37.203125 C 23.617188 -32.011719 22.265625 -27.316406 19.347656 -25.324219 L 24.257812 0 Z M 10.527344 -29.167969 C 11.59375 -29.167969 13.019531 -29.308594 14.15625 -30.304688 C 15.292969 -31.300781 16.21875 -33.222656 16.21875 -36.921875 C 16.21875 -40.621094 15.292969 -42.613281 14.15625 -43.605469 C 13.019531 -44.601562 11.59375 -44.675781 10.527344 -44.675781 Z M 10.527344 -29.167969 "/></g></g></g></svg>